# xmcd
#
# Track frame offsets: 
#        150
#        22202
#        49617
#        88753
#        119749
#        142882
#        168049
#        190302
#
# Disc length: 3640 seconds
#
# Revision: 0
# Processed by: cddbd v1.5.1PL0 Copyright (c) Steve Scherf et al.
# Submitted via: ExactAudioCopy v0.95b2
#
DISCID=6a0e3608
DTITLE=Mick Pini - Live in Germany
DYEAR=2004
DGENRE=Blues
TTITLE0=Just Playin
TTITLE1=It's To Late
TTITLE2=Little Girl
TTITLE3=I Won't Be A Fool
TTITLE4=I Can't Win
TTITLE5=Whay Does Love Have To (Feel So Bad)
TTITLE6=Is It Me, Is It You
TTITLE7=I Got It Bad (Claudias Tune)
EXTD=
EXTT0=
EXTT1=
EXTT2=
EXTT3=
EXTT4=
EXTT5=
EXTT6=
EXTT7=
PLAYORDER=
